<?xml version="1.0" encoding="UTF-8"?>
<svg width="134px" height="134px" viewBox="0 0 134 134" version="1.1" xmlns="http://www.w3.org/2000/svg" xmlns:xlink="http://www.w3.org/1999/xlink">
    <!-- Generator: Sketch 55.2 (78181) - https://sketchapp.com -->
    <title>stacked-bar-chart-overview</title>
    <desc>Created with Sketch.</desc>
    <g id="Chart-Icon-Sets" stroke="none" stroke-width="1" fill="none" fill-rule="evenodd">
        <g id="Desktop-HD" transform="translate(-703.000000, -39.000000)">
            <g id="stacked-bar-chart-overview" transform="translate(703.000000, 39.000000)">
                <circle id="Oval" fill="#1890FF" cx="67" cy="67" r="67"></circle>
                <g id="stacked-bar" transform="translate(27.000000, 37.000000)">
                    <g id="two-dimensional-axes" fill="#FFFFFF">
                        <rect id="Rectangle" x="0" y="0" width="4" height="60" rx="2"></rect>
                        <rect id="Rectangle" transform="translate(40.000000, 58.000000) rotate(90.000000) translate(-40.000000, -58.000000) " x="38" y="18" width="4" height="80" rx="2"></rect>
                    </g>
                    <rect id="Rectangle" fill="#E5E5E5" x="8" y="39" width="7" height="17"></rect>
                    <rect id="Rectangle" fill="#FFFFFF" x="8" y="28" width="7" height="11"></rect>
                    <rect id="Rectangle" fill="#AEAEAE" x="22" y="51" width="7" height="5"></rect>
                    <rect id="Rectangle" fill="#CFCECE" x="36" y="2" width="7" height="5"></rect>
                    <rect id="Rectangle" fill="#FFFFFF" x="22" y="42" width="7" height="9"></rect>
                    <rect id="Rectangle" fill="#FFFFFF" x="65" y="22" width="7" height="9"></rect>
                    <rect id="Rectangle" fill="#CCCCCC" x="22" y="37" width="7" height="5"></rect>
                    <rect id="Rectangle" fill="#DDDDDD" x="51" y="39" width="7" height="17"></rect>
                    <rect id="Rectangle" fill="#FFFFFF" x="36" y="7" width="7" height="49"></rect>
                    <rect id="Rectangle" fill="#E3E3E3" x="65" y="31" width="7" height="25"></rect>
                    <rect id="Rectangle" fill="#FFFFFF" x="51" y="14" width="7" height="25"></rect>
                </g>
            </g>
        </g>
    </g>
</svg>